<mxfile host="65bd71144e" scale="1" border="20">
    <diagram id="EvZBBdXXqlqTiitbuEYX" name="第 1 页">
        <mxGraphModel dx="784" dy="905" grid="1" gridSize="10" guides="1" tooltips="1" connect="1" arrows="1" fold="1" page="1" pageScale="1" pageWidth="827" pageHeight="1169" background="#FFFFFF" math="0" shadow="0">
            <root>
                <mxCell id="0"/>
                <mxCell id="1" parent="0"/>
                <mxCell id="3" value="Stack" style="swimlane;fontSize=17;fontFamily=Comic Sans MS;" vertex="1" parent="1">
                    <mxGeometry x="100" y="215" width="200" height="200" as="geometry"/>
                </mxCell>
                <mxCell id="4" value="0x666" style="rounded=1;whiteSpace=wrap;html=1;fontSize=17;fontFamily=Comic Sans MS;" vertex="1" parent="3">
                    <mxGeometry x="20" y="105" width="60" height="35" as="geometry"/>
                </mxCell>
                <mxCell id="5" value="Stack" style="swimlane;fontSize=17;fontFamily=Comic Sans MS;" vertex="1" parent="3">
                    <mxGeometry width="200" height="200" as="geometry"/>
                </mxCell>
                <mxCell id="6" value="0x666" style="rounded=1;whiteSpace=wrap;html=1;fontSize=17;fontFamily=Comic Sans MS;" vertex="1" parent="5">
                    <mxGeometry x="20" y="105" width="60" height="35" as="geometry"/>
                </mxCell>
                <mxCell id="7" value="3" style="rounded=1;whiteSpace=wrap;html=1;fontSize=17;fontFamily=Comic Sans MS;" vertex="1" parent="5">
                    <mxGeometry x="80" y="105" width="40" height="35" as="geometry"/>
                </mxCell>
                <mxCell id="8" value="Stack" style="swimlane;fontSize=17;fontFamily=Comic Sans MS;" vertex="1" parent="5">
                    <mxGeometry width="200" height="200" as="geometry"/>
                </mxCell>
                <mxCell id="9" value="0x666" style="rounded=1;whiteSpace=wrap;html=1;fontSize=17;fontFamily=Comic Sans MS;" vertex="1" parent="8">
                    <mxGeometry x="20" y="105" width="60" height="35" as="geometry"/>
                </mxCell>
                <mxCell id="10" value="Stack" style="swimlane;fontSize=17;fontFamily=Comic Sans MS;" vertex="1" parent="8">
                    <mxGeometry width="200" height="200" as="geometry"/>
                </mxCell>
                <mxCell id="11" value="0x666" style="rounded=1;whiteSpace=wrap;html=1;fontSize=17;fontFamily=Comic Sans MS;" vertex="1" parent="10">
                    <mxGeometry x="20" y="105" width="60" height="35" as="geometry"/>
                </mxCell>
                <mxCell id="12" value="3" style="rounded=1;whiteSpace=wrap;html=1;fontSize=17;fontFamily=Comic Sans MS;" vertex="1" parent="10">
                    <mxGeometry x="80" y="105" width="40" height="35" as="geometry"/>
                </mxCell>
                <mxCell id="13" value="3" style="rounded=1;whiteSpace=wrap;html=1;fontSize=17;fontFamily=Comic Sans MS;" vertex="1" parent="10">
                    <mxGeometry x="120" y="105" width="40" height="35" as="geometry"/>
                </mxCell>
                <mxCell id="14" value="0x456" style="text;html=1;align=center;verticalAlign=middle;resizable=0;points=[];autosize=1;strokeColor=none;fillColor=none;fontSize=17;fontFamily=Comic Sans MS;" vertex="1" parent="10">
                    <mxGeometry x="55" y="70" width="70" height="30" as="geometry"/>
                </mxCell>
                <mxCell id="15" value="" style="curved=1;endArrow=classic;html=1;fontSize=17;fontFamily=Comic Sans MS;" edge="1" parent="10" target="20">
                    <mxGeometry width="50" height="50" relative="1" as="geometry">
                        <mxPoint x="50" y="105" as="sourcePoint"/>
                        <mxPoint x="100" y="55" as="targetPoint"/>
                        <Array as="points">
                            <mxPoint x="100" y="105"/>
                            <mxPoint x="50" y="55"/>
                        </Array>
                    </mxGeometry>
                </mxCell>
                <mxCell id="16" value="Heap" style="swimlane;fontSize=17;fontFamily=Comic Sans MS;" vertex="1" parent="1">
                    <mxGeometry x="390" y="215" width="200" height="200" as="geometry"/>
                </mxCell>
                <mxCell id="17" value="1" style="rounded=1;whiteSpace=wrap;html=1;fontSize=17;fontFamily=Comic Sans MS;" vertex="1" parent="16">
                    <mxGeometry x="40" y="82.5" width="40" height="35" as="geometry"/>
                </mxCell>
                <mxCell id="18" value="2" style="rounded=1;whiteSpace=wrap;html=1;fontSize=17;fontFamily=Comic Sans MS;" vertex="1" parent="16">
                    <mxGeometry x="80" y="82.5" width="40" height="35" as="geometry"/>
                </mxCell>
                <mxCell id="19" value="3" style="rounded=1;whiteSpace=wrap;html=1;fontSize=17;fontFamily=Comic Sans MS;" vertex="1" parent="16">
                    <mxGeometry x="120" y="82.5" width="40" height="35" as="geometry"/>
                </mxCell>
                <mxCell id="20" value="0x666" style="text;html=1;align=center;verticalAlign=middle;resizable=0;points=[];autosize=1;strokeColor=none;fillColor=none;fontSize=17;fontFamily=Comic Sans MS;" vertex="1" parent="1">
                    <mxGeometry x="395" y="265" width="70" height="30" as="geometry"/>
                </mxCell>
                <mxCell id="21" value="let aa = vec![1,2,3];" style="text;html=1;align=center;verticalAlign=middle;resizable=0;points=[];autosize=1;strokeColor=none;fillColor=none;fontSize=17;fontFamily=Comic Sans MS;" vertex="1" parent="1">
                    <mxGeometry x="110" y="115" width="160" height="30" as="geometry"/>
                </mxCell>
            </root>
        </mxGraphModel>
    </diagram>
</mxfile>